<?xml version="1.0" encoding="UTF-8"?>
<svg id="Layer_1" data-name="Layer 1" xmlns="http://www.w3.org/2000/svg" viewBox="0 0 36.65 30.59">
  <defs>
    <style>
      .cls-1 {
        fill: #39b54a;
      }
    </style>
  </defs>
  <path class="cls-1" d="m8.52,30.35c-2.68,0-4.72-.79-6.13-2.36S.18,24.27.02,21.55l4.25-1.06c.21,4.25,1.63,6.38,4.25,6.38,2.12,0,3.19-1.06,3.19-3.19,0-.63-.09-1.21-.26-1.75-.17-.54-.43-1.03-.79-1.48-.35-.45-.68-.81-.96-1.08-.29-.27-.68-.61-1.18-1l-5.31-4.25c-.97-.76-1.75-1.73-2.33-2.91s-.87-2.52-.87-4.03C0,4.98.68,3.24,2.04,1.94S5.21,0,7.45,0c2.41,0,4.33.59,5.75,1.77,1.42,1.18,2.3,2.85,2.63,5.01.03.23.07.55.12.96l-4.25,1.06c-.01-.19-.04-.47-.08-.85-.19-1.35-.61-2.43-1.27-3.25-.66-.81-1.62-1.22-2.9-1.22-1.02,0-1.8.29-2.36.85-.55.57-.83,1.36-.83,2.38,0,1.67.71,3.07,2.12,4.2l5.31,4.25c2.83,2.29,4.25,5.03,4.25,8.22,0,2.18-.67,3.88-2.02,5.11s-3.15,1.84-5.42,1.84Z"/>
  <path class="cls-1" d="m21.77,30.59V.84h7.44c4.96,0,7.44,2.83,7.44,8.5,0,2.42-.64,4.27-1.92,5.54-1.28,1.27-3.12,1.9-5.52,1.9h-3.19v13.81h-4.25Zm4.25-17h1.06c.96,0,1.75-.06,2.37-.17.61-.11,1.16-.32,1.63-.62.47-.3.81-.74,1.01-1.3.2-.56.31-1.28.31-2.16,0-1.06-.08-1.92-.23-2.58-.16-.66-.44-1.2-.86-1.62-.41-.42-.95-.71-1.61-.87-.66-.16-1.53-.24-2.62-.24h-1.06v9.56Z"/>
</svg>